# xmcd
#
# Track frame offsets:
#	150
#	17346
#	31404
#	44522
#	55407
#	74480
#	91240
#	114159
#	129465
#	143024
#	161188
#	180216
#
# Disc length: 2705 seconds
#
# Revision: 2
# Processed by: cddbd v1.5.2PL0 Copyright (c) Steve Scherf et al.
# Submitted via: audiograbber 1.83.01
#
DISCID=990a8f0c
DTITLE=Adkins, Doug and One More Ride - A losin' soul
DYEAR=2003
DGENRE=Country
TTITLE0=Ropin' the wind
TTITLE1=Get outta town
TTITLE2=In your kiss
TTITLE3=What's your problem
TTITLE4=Man of honor
TTITLE5=Back room deals
TTITLE6=One more ride
TTITLE7=Read my lips
TTITLE8=Talk about blue
TTITLE9=Where I went wrong
TTITLE10=Spoon fed
TTITLE11=A losin' soul
EXTD=
EXTT0=
EXTT1=
EXTT2=
EXTT3=
EXTT4=
EXTT5=
EXTT6=
EXTT7=
EXTT8=
EXTT9=
EXTT10=
EXTT11=
PLAYORDER=
